<?xml version="1.0" standalone="no"?>
<!DOCTYPE svg PUBLIC "-//W3C//DTD SVG 20010904//EN"
 "http://www.w3.org/TR/2001/REC-SVG-20010904/DTD/svg10.dtd">
<svg version="1.0" xmlns="http://www.w3.org/2000/svg"
 width="1330.000000pt" height="1330.000000pt" viewBox="0 0 1330.000000 1330.000000"
 preserveAspectRatio="xMidYMid meet">

<g transform="translate(0.000000,1330.000000) scale(0.100000,-0.100000)"
fill="#000000" stroke="none">
<path d="M2355 13289 c-840 -69 -1573 -525 -1998 -1243 -199 -337 -315 -711
-347 -1115 -14 -187 -14 -8375 0 -8562 66 -848 521 -1584 1244 -2012 287 -169
601 -278 966 -334 108 -16 373 -18 4325 -21 3060 -2 4254 0 4370 8 771 55
1437 420 1894 1040 274 370 443 835 481 1319 14 187 14 8375 0 8562 -66 847
-521 1584 -1242 2011 -346 204 -704 316 -1122 348 -157 12 -8421 11 -8571 -1z
m3865 -3174 l0 -495 -107 0 c-278 0 -514 -44 -594 -109 -19 -16 -47 -55 -63
-87 -50 -102 -66 -209 -76 -529 -34 -1037 -58 -1272 -155 -1530 -38 -100 -110
-240 -161 -311 -79 -112 -254 -272 -401 -369 -24 -15 -43 -31 -43 -35 0 -3 39
-33 88 -65 48 -33 139 -111 203 -175 204 -201 298 -378 364 -683 39 -181 53
-329 80 -852 44 -861 44 -860 67 -922 30 -78 110 -162 187 -197 87 -39 179
-54 409 -68 l202 -12 0 -494 0 -495 -302 6 c-477 8 -734 54 -987 173 -118 55
-197 112 -287 205 -151 158 -229 323 -283 597 -40 201 -51 370 -61 902 -14
796 -32 945 -137 1154 -141 279 -304 386 -640 419 l-123 11 0 497 0 496 98 7
c216 14 394 84 525 206 62 58 83 86 121 163 106 215 155 557 156 1087 1 463
27 898 65 1084 88 424 391 727 840 841 205 52 407 72 763 74 l252 1 0 -495z
m3210 479 c114 -26 206 -79 295 -169 129 -129 181 -260 172 -435 -14 -292
-234 -520 -538 -560 -58 -8 -409 -10 -1134 -8 -1169 4 -1082 -1 -1235 74 -137
68 -261 214 -306 363 -79 260 55 556 307 680 152 74 72 70 1284 70 944 1 1099
-1 1155 -15z"/>
</g>
</svg>
