<?xml version="1.0" encoding="UTF-8" standalone="no" ?>
<!DOCTYPE svg PUBLIC "-//W3C//DTD SVG 1.1//EN" "http://www.w3.org/Graphics/SVG/1.1/DTD/svg11.dtd">
<svg xmlns="http://www.w3.org/2000/svg" xmlns:xlink="http://www.w3.org/1999/xlink" version="1.1" width="1080" height="1080" viewBox="0 0 1080 1080" xml:space="preserve">
<desc>Created with Fabric.js 5.2.4</desc>
<defs>
</defs>
<rect x="0" y="0" width="100%" height="100%" fill="transparent"></rect>
<g transform="matrix(1 0 0 1 540 540)" id="193aeb0b-5c5e-4aa0-ac69-63f179daf70a"  >
</g>
<g transform="matrix(1 0 0 1 540 540)" id="346d1eec-0379-4119-bc28-9fd09ba3ef82"  >
<rect style="stroke: none; stroke-width: 1; stroke-dasharray: none; stroke-linecap: butt; stroke-dashoffset: 0; stroke-linejoin: miter; stroke-miterlimit: 4; fill: rgb(255,255,255); fill-rule: nonzero; opacity: 1; visibility: hidden;" vector-effect="non-scaling-stroke"  x="-540" y="-540" rx="0" ry="0" width="1080" height="1080" />
</g>
<g transform="matrix(0 0 0 0 0 0)"  >
<g style=""   >
</g>
</g>
<g transform="matrix(27.52 0 0 27.52 540 540)"  >
<path style="stroke: none; stroke-width: 1; stroke-dasharray: none; stroke-linecap: butt; stroke-dashoffset: 0; stroke-linejoin: miter; stroke-miterlimit: 4; fill: rgb(129,29,255); fill-rule: nonzero; opacity: 1;" vector-effect="non-scaling-stroke"  transform=" translate(-266.3, -19)" d="M 257.496 27.791 L 257.496 10.211000000000002 L 247.438 10.211000000000002 L 247.438 22.05 C 247.438 30.86 254.57999999999998 37.999 263.38599999999997 37.996 L 275.09299999999996 37.996 L 275.09299999999996 27.794 L 257.496 27.794 L 257.496 27.791 z M 275.102 10.208000000000002 L 275.102 27.788 L 285.161 27.788 L 285.161 15.946 C 285.161 7.135999999999999 278.019 0 269.212 0 L 257.508 0 L 257.508 10.208 L 275.10499999999996 10.208 L 275.102 10.208 z" stroke-linecap="round" />
</g>
</svg>